<svg width="82" height="74" viewBox="0 0 82 74" fill="none" xmlns="http://www.w3.org/2000/svg">
<path d="M30.4999 0.305115C30.4947 0.305115 30.4894 0.305115 30.4842 0.305115C26.6176 0.305115 23.4203 2.29749 21.9818 5.55512H20.7218C20.7139 5.55512 20.7061 5.55512 20.6982 5.55512C17.3618 5.55512 14.1934 6.67074 11.7784 8.70249C9.21644 10.855 7.80419 13.8239 7.79894 17.0552C7.79632 19.6671 9.17969 22.5599 10.4896 24.3816C4.65419 26.4029 0.687818 31.2932 0.679943 36.6876C0.672068 42.0584 4.63582 46.9514 10.4817 48.991C9.15344 50.8075 7.74119 53.6845 7.73857 56.2517C7.73069 62.62 13.5529 67.8096 20.7244 67.8227H21.9844C23.4098 71.0725 26.6149 73.0675 30.4999 73.0727C30.5052 73.0727 30.5104 73.0727 30.5183 73.0727C35.6948 73.0727 39.3147 69.4476 39.3226 64.2527V9.12512C39.3278 3.94074 35.7027 0.31299 30.4999 0.305115ZM30.4999 44.9301C29.5733 44.9301 28.8199 44.1767 28.8199 43.2501C28.8199 42.3235 29.5733 41.5701 30.4999 41.5701C31.4266 41.5701 32.1799 42.3235 32.1799 43.2501C32.1799 44.1767 31.4266 44.9301 30.4999 44.9301ZM37.4299 31.8051H31.4449V15.1757C32.9543 14.7584 34.0699 13.3881 34.0699 11.7501C34.0699 9.78137 32.4687 8.18012 30.4999 8.18012C28.5312 8.18012 26.9299 9.78137 26.9299 11.7501C26.9299 13.3907 28.0456 14.7584 29.5549 15.1757V31.8051H25.2499H25.2447C23.1499 31.8051 21.6826 33.2725 21.6799 35.3751V37.0551H15.5506C15.1332 35.5457 13.7629 34.4301 12.1249 34.4301C10.1562 34.4301 8.55494 36.0314 8.55494 38.0001C8.55494 39.9689 10.1562 41.5701 12.1249 41.5701C13.7656 41.5701 15.1358 40.4519 15.5506 38.9451H21.6799V54.2594C20.1706 54.6767 19.0549 56.047 19.0549 57.6876C19.0549 59.6564 20.6562 61.2576 22.6249 61.2576C24.5937 61.2576 26.1949 59.6564 26.1949 57.6876C26.1949 56.047 25.0793 54.6767 23.5699 54.2594V35.3751C23.5726 34.3225 24.1973 33.6925 25.2473 33.6925H25.2499H37.4299V64.2449C37.4221 68.0669 35.0464 70.7024 31.4449 71.0961V46.6757C32.9543 46.2584 34.0699 44.8881 34.0699 43.2475C34.0699 41.2787 32.4687 39.6775 30.4999 39.6775C28.5312 39.6775 26.9299 41.2787 26.9299 43.2475C26.9299 44.8881 28.0456 46.2584 29.5549 46.6757V71.1145C26.6596 70.8152 24.4336 69.1667 23.5174 66.5601C23.3836 66.1821 23.0266 65.9301 22.6249 65.9301H20.7244C15.3799 65.9222 9.62069 62.221 9.62594 56.2544C9.63119 53.7186 11.5002 50.4557 12.7917 49.1695C13.0332 48.9306 13.1251 48.5789 13.0358 48.2507C12.9466 47.9226 12.6893 47.668 12.3612 47.584C6.58882 46.0982 2.56207 41.6174 2.56994 36.6876C2.57782 31.7631 6.56519 27.3085 12.2693 25.8175H19.1993C19.6167 27.3269 20.9869 28.4425 22.6249 28.4425C24.5937 28.4425 26.1949 26.8412 26.1949 24.8725C26.1949 22.9037 24.5937 21.3051 22.6249 21.3051C20.9843 21.3051 19.6167 22.4207 19.1993 23.9301H12.5502C11.2981 22.51 9.68369 19.4912 9.68632 17.0579C9.69157 14.3909 10.8649 11.9391 12.9964 10.1489C15.0413 8.42949 17.8501 7.44512 20.7034 7.44512C20.7087 7.44512 20.7166 7.44512 20.7244 7.44512H22.6249C23.0239 7.44512 23.3809 7.19311 23.5148 6.81774C24.5438 3.92236 27.1478 2.19511 30.4842 2.19511C30.4894 2.19511 30.4921 2.19511 30.4973 2.19511C34.6527 2.20299 37.4378 4.98549 37.4299 9.12512V31.8051ZM30.4999 13.4301C29.5733 13.4301 28.8199 12.6767 28.8199 11.7501C28.8199 10.8235 29.5733 10.0701 30.4999 10.0701C31.4266 10.0701 32.1799 10.8235 32.1799 11.7501C32.1799 12.6767 31.4266 13.4301 30.4999 13.4301ZM22.6249 56.0076C23.5516 56.0076 24.3049 56.761 24.3049 57.6876C24.3049 58.6142 23.5516 59.3676 22.6249 59.3676C21.6983 59.3676 20.9449 58.6142 20.9449 57.6876C20.9449 56.761 21.6983 56.0076 22.6249 56.0076ZM13.8049 38.0001C13.8049 38.9267 13.0516 39.6801 12.1249 39.6801C11.1983 39.6801 10.4449 38.9267 10.4449 38.0001C10.4449 37.0735 11.1983 36.3201 12.1249 36.3201C13.0516 36.3201 13.8049 37.0735 13.8049 38.0001ZM20.9449 24.8751C20.9449 23.9485 21.6983 23.1951 22.6249 23.1951C23.5516 23.1951 24.3049 23.9485 24.3049 24.8751C24.3049 25.8017 23.5516 26.5551 22.6249 26.5551C21.6983 26.5551 20.9449 25.8017 20.9449 24.8751ZM81.32 36.6876C81.3252 31.3169 77.3615 26.4265 71.5182 24.3842C72.8491 22.5677 74.2587 19.6907 74.264 17.1209C74.2692 13.8895 72.8465 10.9127 70.2582 8.73924C67.8511 6.71799 64.5803 5.55774 61.2781 5.55249H60.0181C58.5901 2.30274 55.3876 0.30774 51.5052 0.30249C51.4973 0.30249 51.4921 0.30249 51.4842 0.30249C48.9327 0.30249 46.7382 1.15037 45.1369 2.75162C43.5331 4.36074 42.6852 6.56049 42.6799 9.12512V64.2475C42.6721 69.4345 46.2972 73.0596 51.4973 73.0701C51.5052 73.0701 51.5104 73.0701 51.5157 73.0701C55.3823 73.0701 58.5769 71.0751 60.0154 67.8201H61.2728C61.2833 67.8201 61.2912 67.8201 61.2991 67.8201C64.6354 67.8201 67.8038 66.7019 70.2188 64.6727C72.7835 62.5202 74.1957 59.554 74.201 56.32C74.2036 53.7081 72.8202 50.8127 71.5103 48.9936C77.3483 46.9724 81.3121 42.082 81.32 36.6876ZM51.4999 28.4451C52.4266 28.4451 53.1799 29.1985 53.1799 30.1251C53.1799 31.0517 52.4266 31.8051 51.4999 31.8051C50.5733 31.8051 49.82 31.0517 49.82 30.1251C49.82 29.1985 50.5733 28.4451 51.4999 28.4451ZM69.7332 47.5551H62.8006C62.3832 46.0457 61.013 44.9301 59.3723 44.9301C57.4036 44.9301 55.8023 46.5314 55.8023 48.5001C55.8023 50.4689 57.4036 52.0701 59.3723 52.0701C61.0103 52.0701 62.3832 50.9545 62.8006 49.4451H69.4497C70.6992 50.8652 72.3136 53.884 72.3083 56.3174C72.3057 58.9844 71.1323 61.4361 69.0008 63.2237C66.9507 64.9484 64.1052 65.875 61.2755 65.9275H59.375C58.9759 65.9275 58.6189 66.1821 58.4851 66.5549C57.4534 69.4529 54.8494 71.1775 51.5157 71.1775C51.5104 71.1775 51.5026 71.1775 51.5026 71.1775C49.4524 71.1749 47.7094 70.516 46.4652 69.2744C45.221 68.0327 44.5647 66.2976 44.57 64.2501V41.5701H50.5523V58.1969C49.0429 58.6142 47.9273 59.9845 47.9273 61.6251C47.9273 63.5939 49.5286 65.1951 51.4973 65.1951C53.4661 65.1951 55.0673 63.5939 55.0673 61.6251C55.0673 59.9871 53.9517 58.6142 52.4423 58.1969V41.5701H56.7447H56.7526C58.8499 41.5701 60.3121 40.1027 60.3173 38.0001V36.3201H66.4441C66.8615 37.8295 68.2317 38.9451 69.8723 38.9451C71.8411 38.9451 73.4423 37.3439 73.4423 35.3751C73.4423 33.4064 71.8411 31.8051 69.8723 31.8051C68.2317 31.8051 66.8615 32.9207 66.4441 34.4301H60.32V19.1132C61.8293 18.6959 62.945 17.3256 62.945 15.6876C62.945 13.7189 61.3437 12.1176 59.375 12.1176C57.4062 12.1176 55.8049 13.7189 55.8049 15.6876C55.8049 17.3256 56.9206 18.6959 58.4299 19.1132V38.0001C58.4299 39.0527 57.8052 39.6827 56.7552 39.6827H56.7499H44.57V9.12512C44.5726 7.07499 45.2314 5.33199 46.4731 4.09037C47.5152 3.04562 48.9222 2.44449 50.5549 2.27124V26.6969C49.0456 27.1142 47.9299 28.4845 47.9299 30.1225C47.9299 32.0912 49.5312 33.6925 51.4999 33.6925C53.4687 33.6925 55.07 32.0912 55.07 30.1225C55.07 28.4845 53.9543 27.1142 52.445 26.6969V2.25812C55.3403 2.55999 57.5663 4.20587 58.4824 6.81511C58.6163 7.19312 58.9759 7.44512 59.375 7.44512H61.2755C64.142 7.44774 66.9717 8.45049 69.0428 10.1882C71.1953 11.9969 72.3792 14.4565 72.3739 17.1209C72.3713 19.6566 70.4997 22.9195 69.2108 24.2057C68.9693 24.4446 68.8774 24.7964 68.9641 25.1245C69.0533 25.4526 69.3132 25.7072 69.6413 25.7912C75.4111 27.2796 79.4378 31.7605 79.4299 36.6876C79.4247 41.6069 75.4399 46.0589 69.7332 47.5551ZM61.0549 48.5001C61.0549 49.4267 60.3016 50.1801 59.375 50.1801C58.4483 50.1801 57.695 49.4267 57.695 48.5001C57.695 47.5735 58.4483 46.8201 59.375 46.8201C60.3016 46.8201 61.0549 47.5735 61.0549 48.5001ZM51.4999 59.9451C52.4266 59.9451 53.1799 60.6985 53.1799 61.6251C53.1799 62.5517 52.4266 63.3051 51.4999 63.3051C50.5733 63.3051 49.82 62.5517 49.82 61.6251C49.82 60.6985 50.5733 59.9451 51.4999 59.9451ZM59.375 17.3676C58.4483 17.3676 57.695 16.6142 57.695 15.6876C57.695 14.761 58.4483 14.0076 59.375 14.0076C60.3016 14.0076 61.0549 14.761 61.0549 15.6876C61.0549 16.6142 60.3016 17.3676 59.375 17.3676ZM68.195 35.3751C68.195 34.4485 68.9483 33.6951 69.8749 33.6951C70.8016 33.6951 71.5549 34.4485 71.5549 35.3751C71.5549 36.3017 70.8016 37.0551 69.8749 37.0551C68.9483 37.0551 68.195 36.3017 68.195 35.3751Z" fill="#E31C3F"/>
</svg>
