<svg width="246" height="246" viewBox="0 0 246 246" fill="none" xmlns="http://www.w3.org/2000/svg">
<path d="M122.722 223.275C67.1614 223.275 21.9695 178.097 21.9695 122.578C21.9695 67.0592 67.1722 21.8818 122.722 21.8818C178.273 21.8818 223.475 67.0592 223.475 122.578C223.475 178.097 178.273 223.275 122.722 223.275ZM122.722 22.9613C67.7555 22.9613 23.0496 67.6529 23.0496 122.578C23.0496 177.504 67.7663 222.195 122.722 222.195C177.679 222.195 222.395 177.504 222.395 122.578C222.395 67.6529 177.679 22.9613 122.722 22.9613Z" fill="white"/>
<path d="M161.985 6.32574L162.579 6.55243L162.049 14.3681L161.617 14.2061L166.445 8.04215L167.083 8.29044L166.564 16.1061L166.121 15.9333L170.95 9.76936L171.533 9.99606L166.597 16.1924L165.992 15.9549L166.489 8.12851L166.964 8.31203L162.103 14.4544L161.499 14.2169L161.995 6.31494L161.985 6.32574Z" fill="white"/>
<path d="M173.142 10.8057L177.236 12.738L176.998 13.2454L173.466 11.5722L172.213 14.2277L175.648 15.847L175.41 16.3544L171.976 14.7243L170.723 17.3799L174.255 19.0531L174.017 19.5605L169.923 17.6282L173.153 10.7949L173.142 10.8057Z" fill="white"/>
<path d="M178.672 13.4829L179.212 13.7744L175.918 19.9492L179.364 21.7951L179.094 22.2917L175.097 20.1651L178.662 13.5045L178.672 13.4829Z" fill="white"/>
<path d="M182.679 17.6824C183.284 17.3586 183.932 17.1966 184.613 17.2182C185.293 17.229 185.952 17.4341 186.568 17.8119C187.021 18.0818 187.389 18.4273 187.68 18.8267C187.972 19.2261 188.166 19.6579 188.285 20.1113C188.393 20.5647 188.426 21.0181 188.372 21.4607L187.767 21.3851C187.842 20.7806 187.745 20.1977 187.486 19.6363C187.227 19.075 186.816 18.6324 186.276 18.3085C185.758 17.9955 185.196 17.8227 184.624 17.8119C184.051 17.8012 183.5 17.9415 182.993 18.2222C182.485 18.5028 182.075 18.913 181.75 19.442C181.426 19.971 181.264 20.5215 181.243 21.1044C181.232 21.6874 181.362 22.2271 181.632 22.7345C181.902 23.2419 182.312 23.6521 182.831 23.9759C183.371 24.2998 183.954 24.4617 184.57 24.4293C185.185 24.4077 185.747 24.2242 186.255 23.8788L186.611 24.3861C186.244 24.6344 185.833 24.8179 185.38 24.9259C184.926 25.0338 184.451 25.0554 183.954 24.9907C183.457 24.9151 182.993 24.7424 182.539 24.4725C181.913 24.0947 181.437 23.6089 181.113 23.0044C180.789 22.3999 180.627 21.7629 180.638 21.0721C180.649 20.3812 180.843 19.7335 181.221 19.1182C181.599 18.5028 182.085 18.0278 182.69 17.704L182.679 17.6824Z" fill="white"/>
<path d="M190.024 22.2376C190.651 21.9569 191.299 21.849 191.99 21.9137C192.671 21.9785 193.308 22.2268 193.902 22.637C194.334 22.9393 194.68 23.3063 194.939 23.7273C195.198 24.1483 195.371 24.5909 195.447 25.0551C195.522 25.5193 195.522 25.9619 195.447 26.4045L194.842 26.2857C194.96 25.692 194.906 25.0983 194.68 24.5261C194.453 23.954 194.086 23.479 193.567 23.112C193.07 22.7557 192.53 22.5506 191.958 22.5075C191.385 22.4535 190.834 22.5506 190.305 22.7989C189.776 23.0472 189.333 23.4142 188.977 23.9216C188.62 24.429 188.415 24.9687 188.35 25.5409C188.296 26.113 188.383 26.6743 188.62 27.1925C188.858 27.7107 189.225 28.1641 189.733 28.5095C190.251 28.8765 190.813 29.0709 191.439 29.0924C192.055 29.114 192.627 28.9629 193.157 28.6606L193.47 29.1896C193.081 29.4055 192.66 29.5566 192.195 29.643C191.731 29.7186 191.256 29.7078 190.77 29.5998C190.284 29.4919 189.83 29.2868 189.398 28.9845C188.804 28.5635 188.361 28.0453 188.08 27.4192C187.799 26.7931 187.68 26.1454 187.745 25.4545C187.81 24.7636 188.048 24.1375 188.469 23.5438C188.89 22.95 189.409 22.5182 190.035 22.2376H190.024Z" fill="white"/>
<path d="M197.056 27.3226C197.693 27.0851 198.363 27.0203 199.032 27.1391C199.713 27.2578 200.329 27.5493 200.879 28.0027C201.441 28.4668 201.841 29.0174 202.089 29.6651C202.338 30.3128 202.392 30.9713 202.284 31.6406C202.176 32.3099 201.884 32.936 201.419 33.4865C200.966 34.0371 200.415 34.4365 199.767 34.674C199.13 34.9115 198.46 34.9763 197.79 34.8575C197.11 34.7388 196.494 34.4473 195.932 33.9831C195.382 33.5297 194.982 32.9684 194.734 32.3315C194.496 31.6838 194.431 31.0253 194.539 30.356C194.658 29.6759 194.939 29.0606 195.403 28.51C195.868 27.9595 196.408 27.5601 197.056 27.3226ZM195.144 30.4855C195.047 31.0577 195.101 31.619 195.295 32.1588C195.5 32.6985 195.824 33.1627 196.289 33.5513C196.764 33.9399 197.283 34.1774 197.855 34.2746C198.428 34.3717 198.989 34.3178 199.529 34.1127C200.08 33.9076 200.545 33.5729 200.944 33.0979C201.344 32.6229 201.581 32.094 201.679 31.5218C201.776 30.9497 201.722 30.3884 201.527 29.8486C201.322 29.3089 200.998 28.8447 200.534 28.456C200.059 28.0674 199.54 27.8191 198.968 27.7328C198.395 27.6356 197.844 27.6896 197.293 27.8947C196.753 28.0998 196.278 28.4453 195.889 28.9202C195.49 29.3952 195.252 29.9242 195.144 30.4963V30.4855Z" fill="white"/>
<path d="M205.157 31.77L205.589 32.191L200.339 37.6317L199.907 37.2107L205.157 31.77ZM205.275 31.8888L205.729 32.3314L202.899 39.8339L202.51 39.4561L209.92 36.3687L210.363 36.8005L202.77 39.9743L202.37 39.5964L205.265 31.8888H205.275ZM210.071 36.5091L210.503 36.9193L205.254 42.36L204.822 41.9498L210.071 36.5091Z" fill="white"/>
<path d="M211.821 38.3331L214.878 41.6687L214.467 42.0466L211.832 39.1643L209.661 41.1398L212.221 43.9465L211.81 44.3243L209.25 41.5176L207.079 43.4931L209.715 46.3754L209.304 46.7532L206.248 43.4175L211.832 38.3223L211.821 38.3331Z" fill="white"/>
<path d="M218.982 47.5519L217.362 45.4685L217.805 45.123L221.412 49.7649L220.97 50.1104L219.349 48.0269L213.819 52.3234L213.441 51.8376L218.971 47.5411L218.982 47.5519Z" fill="white"/>
<path d="M220.548 51.6327C221.229 51.5788 221.888 51.6975 222.503 51.9998C223.119 52.302 223.637 52.7446 224.048 53.3383C224.458 53.9429 224.696 54.5798 224.75 55.2707C224.804 55.9616 224.685 56.6093 224.383 57.2246C224.091 57.8399 223.637 58.3581 223.043 58.7575C222.449 59.1677 221.812 59.3944 221.131 59.4484C220.451 59.5023 219.792 59.3836 219.176 59.0813C218.561 58.7791 218.042 58.3365 217.632 57.7319C217.221 57.1382 216.995 56.5013 216.941 55.8104C216.887 55.1195 217.005 54.4718 217.297 53.8565C217.589 53.2412 218.042 52.723 218.636 52.3236C219.23 51.9134 219.868 51.6867 220.548 51.6327ZM217.848 54.148C217.6 54.6661 217.491 55.2167 217.535 55.7996C217.578 56.3718 217.772 56.9115 218.107 57.4189C218.453 57.9263 218.885 58.3041 219.414 58.5524C219.943 58.8007 220.494 58.8978 221.067 58.8546C221.65 58.8114 222.19 58.6171 222.708 58.2609C223.216 57.9155 223.605 57.4729 223.853 56.9439C224.102 56.4149 224.21 55.8644 224.167 55.2923C224.123 54.7093 223.929 54.1804 223.594 53.673C223.249 53.1656 222.816 52.7878 222.287 52.5395C221.769 52.2912 221.207 52.1941 220.635 52.2372C220.051 52.2804 219.511 52.4855 219.004 52.831C218.496 53.1764 218.107 53.619 217.859 54.1372L217.848 54.148Z" fill="white"/>
<path d="M230.237 63.5826L230.539 64.1439L225.506 70.7073L225.193 70.1352L230.172 63.6473L230.442 64.1439L222.287 64.8348L221.974 64.2627L230.215 63.5718L230.237 63.5826ZM225.031 64.1979L227.223 68.2137L226.727 68.4835L224.534 64.4678L225.031 64.1979Z" fill="white"/>
<path d="M234.287 71.5391L234.525 72.0897L230.075 80.0024L229.729 79.6246L236.501 76.7315L236.739 77.2821L229.783 80.2507L229.546 79.7002L233.996 71.7766L234.341 72.1652L227.569 75.0583L227.331 74.497L234.287 71.5283V71.5391Z" fill="white"/>
<path d="M237.419 79.063L238.953 83.3162L238.424 83.5106L237.106 79.8294L234.341 80.8226L235.626 84.3957L235.097 84.5901L233.812 81.0169L231.047 82.01L232.365 85.6912L231.835 85.8855L230.302 81.6322L237.419 79.0738V79.063Z" fill="white"/>
<path d="M239.429 84.5254L239.602 85.1407L233.013 89.3832L232.883 88.9406L240.714 89.1241L240.898 89.7826L234.32 94.0358L234.19 93.5825L242.021 93.766L242.194 94.3705L234.277 94.1222L234.104 93.4961L240.682 89.2212L240.822 89.707L232.98 89.4803L232.808 88.8542L239.45 84.5254H239.429Z" fill="white"/>
<path d="M243.209 99.5625L243.976 104.021L243.425 104.118L242.766 100.264L239.872 100.761L240.52 104.507L239.969 104.604L239.321 100.858L236.426 101.354L237.085 105.208L236.534 105.305L235.767 100.847L243.22 99.5733L243.209 99.5625Z" fill="white"/>
<path d="M244.214 105.684L244.559 108.598C244.613 109.019 244.559 109.408 244.419 109.764C244.278 110.12 244.051 110.412 243.76 110.649C243.457 110.876 243.123 111.016 242.734 111.06C242.356 111.103 241.988 111.049 241.654 110.898C241.308 110.746 241.027 110.509 240.8 110.196C240.574 109.883 240.444 109.516 240.39 109.095L240.12 106.785L236.793 107.173L236.718 106.558L244.224 105.684H244.214ZM240.628 108.112L240.714 108.847L237.322 111.858L237.236 111.114L240.628 108.112ZM241.232 109.829C241.394 110.056 241.61 110.228 241.859 110.336C242.107 110.444 242.377 110.487 242.658 110.455C242.939 110.423 243.198 110.325 243.414 110.153C243.63 109.991 243.792 109.775 243.9 109.516C244.008 109.257 244.041 108.976 244.008 108.663L243.738 106.353L240.671 106.709L240.941 109.019C240.973 109.322 241.081 109.591 241.243 109.818L241.232 109.829Z" fill="white"/>
<path d="M245.142 115.367L245.175 116.004L237.808 119.76L237.776 119.113L245.067 115.399L245.099 115.971L237.441 113.089L237.409 112.441L245.142 115.367ZM240.174 113.672L240.433 118.238L239.861 118.271L239.601 113.704L240.174 113.672Z" fill="white"/>
<path d="M243.576 124.532C244.16 124.899 244.602 125.385 244.916 126C245.229 126.615 245.369 127.274 245.348 127.997C245.315 128.72 245.121 129.379 244.754 129.962C244.386 130.545 243.9 130.987 243.285 131.311C242.68 131.624 242.01 131.765 241.297 131.743C240.574 131.711 239.925 131.516 239.353 131.149C238.77 130.782 238.327 130.296 238.014 129.681C237.7 129.066 237.56 128.397 237.592 127.673C237.625 126.95 237.819 126.302 238.186 125.719C238.554 125.136 239.04 124.694 239.655 124.37C240.26 124.057 240.93 123.917 241.643 123.938C242.367 123.971 243.015 124.165 243.587 124.532H243.576ZM239.893 124.921C239.375 125.19 238.964 125.557 238.651 126.054C238.338 126.54 238.165 127.09 238.143 127.695C238.122 128.31 238.241 128.872 238.511 129.379C238.781 129.886 239.159 130.307 239.655 130.62C240.142 130.933 240.703 131.106 241.319 131.128C241.935 131.16 242.507 131.031 243.025 130.761C243.544 130.491 243.954 130.113 244.268 129.627C244.581 129.141 244.754 128.591 244.775 127.986C244.797 127.371 244.678 126.81 244.408 126.302C244.138 125.795 243.76 125.374 243.263 125.072C242.766 124.759 242.215 124.597 241.6 124.564C240.984 124.543 240.412 124.661 239.893 124.921Z" fill="white"/>
<path d="M244.872 133.6L244.419 137.885L243.857 137.831L244.246 134.161L241.308 133.848L240.93 137.41L240.358 137.346L240.736 133.783L237.29 133.416L237.355 132.801L244.872 133.589V133.6Z" fill="white"/>
<path d="M236.933 142.657C236.588 142.97 236.361 143.434 236.253 144.039C236.177 144.417 236.177 144.762 236.253 145.075C236.318 145.388 236.447 145.658 236.631 145.863C236.815 146.068 237.052 146.198 237.333 146.252C237.668 146.317 237.949 146.273 238.197 146.133C238.435 145.993 238.64 145.788 238.813 145.539C238.975 145.291 239.169 144.946 239.385 144.503C239.623 144.017 239.839 143.618 240.023 143.337C240.217 143.046 240.465 142.819 240.779 142.646C241.092 142.473 241.459 142.43 241.902 142.506C242.258 142.571 242.572 142.733 242.831 143.002C243.09 143.262 243.263 143.596 243.371 143.996C243.479 144.395 243.479 144.827 243.392 145.28C243.306 145.744 243.144 146.144 242.906 146.478C242.669 146.813 242.377 147.061 242.032 147.223C241.686 147.385 241.319 147.472 240.919 147.461V146.835C241.383 146.856 241.805 146.716 242.161 146.424C242.518 146.133 242.744 145.712 242.842 145.172C242.906 144.838 242.906 144.514 242.842 144.222C242.777 143.931 242.658 143.683 242.474 143.499C242.302 143.305 242.075 143.186 241.805 143.143C241.491 143.078 241.211 143.121 240.995 143.262C240.768 143.402 240.584 143.596 240.433 143.834C240.282 144.071 240.109 144.406 239.904 144.838C239.666 145.345 239.439 145.744 239.245 146.047C239.05 146.349 238.78 146.586 238.456 146.759C238.132 146.932 237.722 146.975 237.247 146.889C236.858 146.813 236.534 146.64 236.275 146.36C236.015 146.079 235.842 145.734 235.745 145.302C235.648 144.87 235.648 144.427 235.745 143.952C235.886 143.208 236.177 142.625 236.631 142.204C237.085 141.783 237.625 141.588 238.251 141.621V142.247C237.754 142.225 237.322 142.366 236.977 142.689L236.933 142.657Z" fill="white"/>
<path d="M240.595 149.426C241.081 149.901 241.416 150.473 241.6 151.142C241.783 151.811 241.783 152.481 241.6 153.182C241.416 153.884 241.092 154.489 240.606 154.974C240.131 155.471 239.558 155.806 238.899 155.989C238.24 156.173 237.56 156.173 236.858 155.989C236.156 155.806 235.562 155.482 235.076 155.007C234.59 154.532 234.244 153.96 234.071 153.29C233.898 152.621 233.888 151.941 234.071 151.239C234.255 150.538 234.579 149.944 235.065 149.458C235.551 148.972 236.113 148.627 236.771 148.443C237.43 148.26 238.111 148.26 238.813 148.443C239.515 148.627 240.109 148.951 240.595 149.426ZM236.912 149.037C236.35 149.188 235.864 149.469 235.465 149.89C235.054 150.3 234.784 150.797 234.633 151.39C234.482 151.984 234.482 152.556 234.633 153.118C234.784 153.679 235.076 154.154 235.497 154.564C235.907 154.974 236.415 155.255 237.02 155.406C237.614 155.557 238.197 155.557 238.759 155.406C239.321 155.244 239.807 154.964 240.206 154.553C240.617 154.143 240.887 153.647 241.038 153.053C241.189 152.459 241.189 151.887 241.038 151.326C240.876 150.764 240.595 150.289 240.174 149.879C239.753 149.48 239.245 149.199 238.651 149.037C238.046 148.886 237.474 148.886 236.912 149.037Z" fill="white"/>
<path d="M239.99 158.558L238.662 162.66L238.122 162.487L239.256 158.979L236.437 158.061L235.335 161.472L234.795 161.3L235.897 157.888L232.602 156.82L232.797 156.237L239.99 158.569V158.558Z" fill="white"/>
<path d="M236.966 165.629L237.906 163.168L238.435 163.362L236.339 168.857L235.81 168.662L236.75 166.201L230.204 163.718L230.42 163.146L236.966 165.629Z" fill="white"/>
<path d="M235.94 170L235.67 170.572L227.915 169.482L228.109 169.061L233.909 174.318L233.618 174.934L225.852 173.854L226.057 173.422L231.857 178.68L231.587 179.241L225.754 173.876L226.024 173.293L233.801 174.351L233.585 174.815L227.807 169.525L228.077 168.942L235.929 170H235.94Z" fill="white"/>
<path d="M229.719 182.501L229.405 183.052L221.175 182.253L221.488 181.692L229.632 182.501L229.351 182.998L224.458 176.445L224.772 175.884L229.708 182.512L229.719 182.501ZM226.457 178.399L224.21 182.382L223.713 182.102L225.971 178.118L226.467 178.399H226.457Z" fill="white"/>
<path d="M222.709 186.701L222.309 187.316L217.772 187.478L218.183 186.852L222.709 186.701ZM227.018 187.111L225.42 189.572C225.193 189.928 224.901 190.198 224.566 190.382C224.232 190.565 223.875 190.652 223.497 190.641C223.119 190.63 222.773 190.511 222.439 190.306C222.115 190.101 221.877 189.821 221.715 189.486C221.553 189.151 221.477 188.784 221.51 188.396C221.542 188.007 221.661 187.64 221.899 187.284L223.162 185.341L220.354 183.516L220.689 182.998L227.029 187.111H227.018ZM222.071 188.396C222.05 188.676 222.104 188.935 222.233 189.184C222.352 189.432 222.536 189.626 222.773 189.788C223.011 189.95 223.27 190.026 223.54 190.036C223.81 190.036 224.07 189.982 224.318 189.853C224.566 189.723 224.772 189.529 224.944 189.27L226.208 187.327L223.616 185.643L222.352 187.586C222.179 187.845 222.093 188.115 222.071 188.396Z" fill="white"/>
<path d="M223.216 192.865L220.559 196.524L220.105 196.189L222.406 193.027L220.03 191.299L217.794 194.376L217.34 194.041L219.576 190.965L217.2 189.237L214.899 192.4L214.446 192.066L217.103 188.406L223.216 192.854V192.865Z" fill="white"/>
<path d="M215.04 200.227L214.824 200.302L215.094 198.683L215.58 198.769L215.245 200.378L215.083 200.248L216.617 199.655L216.79 200.119L215.223 200.648L215.267 200.432L216.541 201.479L216.228 201.846L214.975 200.767L215.18 200.691L214.921 202.321L214.435 202.235L214.77 200.626L214.921 200.756L213.387 201.349L213.214 200.885L214.77 200.346L214.737 200.572L213.463 199.525L213.776 199.158L215.029 200.238L215.04 200.227Z" fill="white"/>
<path d="M211.961 203.746L211.745 203.811L212.08 202.202L212.566 202.31L212.167 203.908L212.015 203.767L213.571 203.228L213.722 203.703L212.134 204.167L212.188 203.951L213.42 205.052L213.095 205.408L211.886 204.275L212.102 204.199L211.778 205.818L211.292 205.711L211.691 204.113L211.843 204.253L210.287 204.793L210.136 204.318L211.713 203.843L211.67 204.07L210.438 202.969L210.762 202.612L211.972 203.746H211.961Z" fill="white"/>
<path d="M208.743 207.147L208.516 207.201L208.915 205.603L209.401 205.733L208.948 207.319L208.797 207.179L210.374 206.704L210.503 207.179L208.905 207.589L208.969 207.373L210.158 208.518L209.812 208.863L208.656 207.686L208.872 207.622L208.483 209.23L207.997 209.101L208.451 207.514L208.591 207.654L207.014 208.129L206.885 207.654L208.483 207.244L208.429 207.471L207.241 206.326L207.587 205.981L208.753 207.158L208.743 207.147Z" fill="white"/>
<path d="M205.178 213.429L204.692 213.839L198.125 209.575L198.482 209.273L201.517 216.484L200.998 216.916L194.42 212.663L194.788 212.36L197.823 219.571L197.337 219.971L194.312 212.652L194.809 212.242L201.409 216.484L201.02 216.808L198.017 209.575L198.514 209.165L205.178 213.44V213.429Z" fill="white"/>
<path d="M195.846 220.986L192.163 223.62L191.839 223.167L195.014 220.889L193.308 218.503L190.219 220.716L189.895 220.263L192.984 218.05L191.277 215.664L188.102 217.942L187.778 217.488L191.461 214.854L195.868 220.997L195.846 220.986Z" fill="white"/>
<path d="M190.802 224.537L190.283 224.872L186.492 218.989L183.209 221.105L182.906 220.63L186.708 218.179L190.802 224.527V224.537Z" fill="white"/>
<path d="M185.207 225.984C185.207 226.675 185.023 227.312 184.678 227.905C184.332 228.499 183.846 228.974 183.209 229.33C182.755 229.589 182.28 229.751 181.783 229.805C181.286 229.859 180.822 229.827 180.368 229.708C179.914 229.589 179.515 229.395 179.147 229.136L179.515 228.639C180.012 228.996 180.562 229.201 181.178 229.233C181.794 229.276 182.377 229.136 182.928 228.823C183.457 228.521 183.867 228.121 184.159 227.614C184.451 227.106 184.591 226.577 184.591 225.995C184.591 225.412 184.44 224.85 184.138 224.321C183.835 223.782 183.425 223.371 182.928 223.069C182.431 222.767 181.891 222.626 181.308 222.616C180.724 222.616 180.174 222.756 179.644 223.058C179.093 223.371 178.683 223.803 178.402 224.354C178.121 224.904 178.013 225.487 178.067 226.092L177.452 226.156C177.419 225.714 177.452 225.271 177.581 224.818C177.711 224.364 177.916 223.943 178.219 223.544C178.521 223.145 178.899 222.821 179.353 222.562C179.979 222.205 180.638 222.022 181.329 222.022C182.021 222.022 182.658 222.195 183.252 222.54C183.846 222.886 184.321 223.371 184.678 223.997C185.034 224.624 185.207 225.282 185.207 225.962V225.984Z" fill="white"/>
<path d="M177.624 230.216C177.57 230.896 177.344 231.522 176.955 232.094C176.566 232.666 176.048 233.098 175.389 233.411C174.913 233.638 174.427 233.756 173.93 233.789C173.434 233.81 172.969 233.746 172.526 233.584C172.084 233.432 171.695 233.206 171.349 232.925L171.749 232.461C172.213 232.85 172.753 233.087 173.369 233.173C173.984 233.26 174.568 233.173 175.14 232.893C175.691 232.634 176.134 232.256 176.458 231.781C176.782 231.306 176.966 230.777 177.009 230.194C177.052 229.611 176.944 229.05 176.674 228.488C176.404 227.927 176.037 227.484 175.561 227.161C175.086 226.826 174.557 226.642 173.985 226.599C173.401 226.556 172.84 226.664 172.289 226.923C171.716 227.193 171.273 227.592 170.96 228.132C170.647 228.661 170.496 229.233 170.507 229.838L169.891 229.859C169.891 229.417 169.966 228.974 170.118 228.532C170.269 228.089 170.517 227.679 170.841 227.312C171.165 226.934 171.576 226.642 172.04 226.416C172.699 226.103 173.369 225.973 174.049 226.027C174.73 226.081 175.356 226.297 175.929 226.686C176.501 227.074 176.933 227.592 177.246 228.24C177.56 228.888 177.689 229.557 177.624 230.237V230.216Z" fill="white"/>
<path d="M169.805 233.864C169.707 234.544 169.437 235.149 169.005 235.689C168.573 236.228 168.022 236.628 167.353 236.887C166.672 237.146 165.992 237.232 165.311 237.135C164.631 237.038 164.026 236.768 163.486 236.336C162.946 235.904 162.557 235.354 162.287 234.685C162.017 234.015 161.941 233.335 162.049 232.666C162.157 231.997 162.417 231.381 162.849 230.842C163.281 230.302 163.832 229.902 164.512 229.643C165.182 229.384 165.862 229.298 166.543 229.406C167.223 229.503 167.828 229.773 168.368 230.205C168.908 230.636 169.297 231.187 169.567 231.856C169.837 232.526 169.913 233.206 169.805 233.875V233.864ZM167.968 230.658C167.515 230.291 167.007 230.064 166.435 229.978C165.862 229.892 165.29 229.956 164.728 230.172C164.156 230.399 163.691 230.734 163.335 231.187C162.978 231.64 162.751 232.159 162.665 232.731C162.579 233.303 162.643 233.886 162.87 234.458C163.097 235.03 163.432 235.505 163.886 235.872C164.339 236.239 164.858 236.466 165.43 236.552C166.003 236.638 166.575 236.574 167.137 236.358C167.709 236.131 168.174 235.796 168.53 235.343C168.886 234.89 169.113 234.372 169.2 233.799C169.286 233.227 169.21 232.655 168.994 232.072C168.768 231.5 168.433 231.025 167.979 230.658H167.968Z" fill="white"/>
<path d="M155.417 240.762L154.845 240.935L152.652 233.702L153.225 233.53L155.417 240.762ZM161.779 238.83L161.174 239.014L156.001 232.893L156.519 232.731L155.612 240.698L155.018 240.881L155.947 232.698L156.476 232.537L161.79 238.819L161.779 238.83ZM161.952 238.787L161.369 238.96L159.176 231.727L159.759 231.554L161.952 238.787Z" fill="white"/>
<path d="M152.987 241.389L148.58 242.425L148.451 241.874L152.253 240.978L151.583 238.118L147.878 238.992L147.749 238.442L151.453 237.567L150.784 234.707L146.982 235.603L146.852 235.052L151.259 234.016L152.987 241.367V241.389Z" fill="white"/>
<path d="M141.398 243.148L144.001 242.759L144.087 243.31L138.265 244.184L138.179 243.634L140.782 243.245L139.734 236.326L140.339 236.239L141.387 243.159L141.398 243.148Z" fill="white"/>
<path d="M137.088 242.522C136.796 243.148 136.375 243.655 135.813 244.044C135.252 244.433 134.604 244.67 133.891 244.735C133.167 244.8 132.487 244.692 131.86 244.4C131.234 244.109 130.726 243.688 130.326 243.126C129.938 242.565 129.7 241.928 129.635 241.216C129.57 240.503 129.678 239.834 129.97 239.208C130.262 238.582 130.683 238.074 131.244 237.686C131.806 237.297 132.454 237.059 133.178 236.995C133.891 236.93 134.571 237.038 135.198 237.329C135.824 237.621 136.332 238.042 136.731 238.603C137.131 239.165 137.358 239.801 137.423 240.514C137.488 241.226 137.38 241.896 137.088 242.522ZM136.224 238.938C135.889 238.463 135.468 238.107 134.938 237.858C134.409 237.61 133.848 237.513 133.253 237.567C132.649 237.621 132.098 237.815 131.633 238.15C131.169 238.484 130.802 238.916 130.553 239.445C130.305 239.974 130.218 240.546 130.272 241.162C130.326 241.777 130.521 242.327 130.856 242.802C131.19 243.277 131.623 243.634 132.141 243.882C132.67 244.13 133.232 244.227 133.837 244.173C134.442 244.119 134.992 243.925 135.457 243.59C135.932 243.256 136.289 242.824 136.526 242.295C136.764 241.766 136.861 241.194 136.807 240.579C136.753 239.963 136.559 239.413 136.224 238.938Z" fill="white"/>
<path d="M121.858 245.134H121.221L117.991 237.513H118.64L121.826 245.058H121.253L124.677 237.621H125.325L121.858 245.134ZM123.9 240.309L119.32 240.233V239.661L123.91 239.736V240.309H123.9Z" fill="white"/>
<path d="M113.002 244.789L112.397 244.724L107.644 236.995L108.141 236.887L107.374 244.206L106.769 244.141L107.558 236.628L108.152 236.693L112.915 244.433L112.407 244.541L113.174 237.222L113.79 237.286L113.002 244.8V244.789Z" fill="white"/>
<path d="M104.89 243.86L100.429 243.126L100.515 242.576L104.371 243.213L104.847 240.32L101.099 239.704L101.185 239.154L104.933 239.769L105.408 236.876L101.552 236.239L101.639 235.688L106.1 236.423L104.879 243.882L104.89 243.86Z" fill="white"/>
<path d="M99.1544 242.976L98.5388 242.824L98.0311 235.009L98.4848 235.117L94.5208 241.864L93.8619 241.702L93.3434 233.886L93.8079 233.994L89.8439 240.741L89.239 240.601L93.3002 233.8L93.9267 233.951L94.4668 241.767L93.9699 241.648L97.9771 234.912L98.6036 235.063L99.1652 242.965L99.1544 242.976Z" fill="white"/>
<path d="M84.1515 238.959L79.885 237.459L80.0686 236.93L83.7626 238.225L84.7347 235.451L81.1487 234.188L81.3324 233.659L84.9183 234.922L85.8904 232.148L82.1965 230.852L82.3801 230.323L86.6465 231.824L84.1407 238.948L84.1515 238.959Z" fill="white"/>
<path d="M78.3082 236.865L75.5971 235.743C75.2083 235.581 74.8842 235.354 74.6466 235.052C74.409 234.75 74.2578 234.415 74.193 234.048C74.139 233.67 74.193 233.303 74.3334 232.947C74.4738 232.591 74.7006 232.31 75.0031 232.083C75.3055 231.857 75.6511 231.727 76.0292 231.684C76.418 231.641 76.8068 231.695 77.1957 231.857L79.3451 232.742L80.6196 229.644L81.1921 229.881L78.3082 236.865ZM76.1372 232.245C75.8563 232.278 75.6079 232.375 75.3919 232.547C75.1759 232.72 75.003 232.925 74.895 233.184C74.787 233.454 74.7546 233.713 74.787 233.983C74.8302 234.253 74.9382 234.501 75.1111 234.717C75.2839 234.933 75.5215 235.106 75.8023 235.225L77.9518 236.11L79.1291 233.26L76.9797 232.375C76.6988 232.256 76.4072 232.213 76.1372 232.245ZM77.9302 232.547L77.2497 232.267L76.256 227.841L76.9473 228.121L77.9302 232.547Z" fill="white"/>
<path d="M69.3972 232.958L68.8247 232.677L69.1271 224.419L69.7104 224.7L69.408 232.871L68.8895 232.623L75.1434 227.344L75.7266 227.625L69.408 232.958H69.3972ZM73.2856 229.449L69.1704 227.442L69.4188 226.923L73.534 228.931L73.2856 229.449Z" fill="white"/>
<path d="M62.1496 227.117C61.5447 227.441 60.8967 227.592 60.2162 227.571C59.5249 227.549 58.8769 227.344 58.2612 226.966C57.6455 226.588 57.1703 226.092 56.8463 225.487C56.5222 224.883 56.3602 224.235 56.3818 223.555C56.4034 222.875 56.6086 222.227 56.9867 221.612C57.3647 220.996 57.8616 220.532 58.4556 220.208C59.0497 219.884 59.7085 219.733 60.389 219.755C61.0803 219.777 61.7284 219.982 62.3548 220.359C62.9705 220.737 63.4349 221.234 63.7698 221.838C64.0938 222.443 64.2558 223.091 64.2342 223.771C64.2126 224.451 64.0074 225.109 63.6294 225.714C63.2513 226.329 62.7653 226.793 62.1604 227.117H62.1496ZM63.6078 223.728C63.6294 223.145 63.4997 222.605 63.2297 222.087C62.9597 221.579 62.56 221.158 62.0524 220.845C61.5339 220.521 60.9831 220.359 60.3998 220.338C59.8166 220.316 59.2765 220.457 58.7581 220.727C58.2504 220.996 57.8292 221.407 57.4943 221.925C57.1703 222.454 56.9975 223.004 56.9759 223.587C56.9543 224.17 57.0839 224.721 57.3539 225.228C57.6239 225.735 58.0236 226.156 58.5312 226.469C59.0497 226.793 59.6005 226.955 60.1838 226.977C60.7671 226.998 61.3071 226.858 61.8148 226.588C62.3224 226.308 62.7437 225.908 63.0677 225.379C63.3917 224.85 63.5646 224.3 63.5862 223.717L63.6078 223.728Z" fill="white"/>
<path d="M53.6169 223.836L50.0957 221.353L50.4197 220.899L53.4332 223.026L55.1398 220.608L52.2127 218.535L52.5476 218.071L55.4747 220.144L57.4729 217.315L57.9805 217.672L53.6169 223.846V223.836Z" fill="white"/>
<path d="M49.5879 212.49C49.4799 212.037 49.1882 211.616 48.7238 211.227C48.4321 210.979 48.1297 210.817 47.8273 210.72C47.514 210.622 47.2332 210.601 46.9524 210.666C46.6824 210.73 46.4555 210.871 46.2719 211.087C46.0559 211.346 45.9479 211.616 45.9587 211.896C45.9695 212.177 46.0451 212.458 46.1747 212.717C46.3151 212.987 46.5203 213.321 46.8012 213.721C47.1144 214.163 47.352 214.541 47.514 214.854C47.6761 215.167 47.7517 215.491 47.7517 215.847C47.7517 216.204 47.6112 216.549 47.3196 216.894C47.082 217.175 46.7904 217.369 46.4339 217.456C46.0775 217.553 45.7102 217.542 45.3106 217.434C44.911 217.326 44.5329 217.121 44.1765 216.83C43.8093 216.527 43.5392 216.193 43.3664 215.815C43.1936 215.437 43.118 215.07 43.1396 214.681C43.1612 214.304 43.28 213.937 43.4744 213.602L44.0253 213.893C43.7769 214.304 43.6904 214.735 43.7768 215.189C43.8633 215.642 44.1117 216.042 44.5437 216.398C44.8138 216.625 45.0838 216.776 45.3754 216.862C45.6671 216.948 45.9371 216.959 46.1855 216.894C46.4339 216.83 46.65 216.7 46.8228 216.484C47.028 216.236 47.1252 215.977 47.1144 215.718C47.1036 215.459 47.028 215.2 46.8876 214.951C46.758 214.703 46.5527 214.379 46.2719 213.991C45.9479 213.537 45.7103 213.149 45.5374 212.825C45.3754 212.501 45.289 212.155 45.2998 211.788C45.2998 211.421 45.4618 211.043 45.7751 210.666C46.0235 210.363 46.3367 210.169 46.7148 210.072C47.082 209.986 47.4816 209.996 47.8921 210.126C48.3025 210.255 48.7022 210.471 49.0694 210.774C49.6527 211.259 50.0199 211.799 50.1603 212.393C50.3007 212.987 50.2143 213.559 49.8795 214.088L49.3286 213.796C49.5987 213.354 49.6851 212.911 49.5663 212.458L49.5879 212.49Z" fill="white"/>
<path d="M41.8759 212.361C41.217 212.555 40.5582 212.566 39.8885 212.404C39.2188 212.242 38.6247 211.907 38.1063 211.411C37.577 210.914 37.2206 210.331 37.0262 209.673C36.8318 209.014 36.8102 208.356 36.9722 207.687C37.1342 207.017 37.469 206.423 37.9659 205.905C38.4627 205.387 39.0352 205.031 39.6941 204.837C40.3529 204.642 41.0118 204.632 41.6815 204.793C42.3511 204.955 42.9452 205.29 43.4745 205.787C43.9929 206.283 44.3601 206.866 44.5546 207.525C44.749 208.183 44.7706 208.852 44.6086 209.511C44.4466 210.18 44.1225 210.774 43.6257 211.292C43.1288 211.81 42.5564 212.166 41.8975 212.361H41.8759ZM44.0037 209.338C44.1441 208.777 44.1333 208.215 43.9713 207.654C43.8093 207.093 43.5069 206.607 43.0748 206.197C42.632 205.776 42.1243 205.495 41.5627 205.366C41.001 205.236 40.4393 205.247 39.8777 205.409C39.316 205.571 38.83 205.884 38.3979 206.326C37.9659 206.78 37.685 207.287 37.5554 207.848C37.4258 208.41 37.4258 208.971 37.5878 209.532C37.7499 210.094 38.0523 210.58 38.4843 210.99C38.9272 211.411 39.4348 211.691 39.9965 211.821C40.5581 211.951 41.1198 211.94 41.6707 211.767C42.2323 211.605 42.7184 211.292 43.1504 210.849C43.5825 210.396 43.8633 209.899 44.0037 209.327V209.338Z" fill="white"/>
<path d="M34.1857 207.384L31.2585 204.232L31.669 203.854L34.1857 206.564L36.3567 204.556L33.9156 201.933L34.3369 201.544L36.7779 204.167L39.3162 201.814L39.7374 202.267L34.1965 207.406L34.1857 207.384Z" fill="white"/>
<path d="M29.5087 201.328L31.2044 203.347L30.7724 203.703L26.9812 199.201L27.4132 198.845L29.109 200.864L34.4664 196.362L34.866 196.837L29.5087 201.339V201.328Z" fill="white"/>
<path d="M26.1711 198.306L25.793 197.788L30.5131 191.537L30.7832 191.915L23.3736 194.43L22.9739 193.88L27.6832 187.619L27.9641 188.007L20.5545 190.523L20.1873 190.015L27.7156 187.521L28.0937 188.05L23.3952 194.322L23.1036 193.912L30.5347 191.429L30.9128 191.958L26.1711 198.306Z" fill="white"/>
<path d="M18.2755 186.798L17.9407 186.258L22.6392 179.457L22.974 180.008L18.3187 186.733L18.0163 186.247L26.1279 185.157L26.4628 185.707L18.2647 186.798H18.2755ZM23.4384 185.934L21.0514 182.026L21.5375 181.724L23.9245 185.632L23.4384 185.934Z" fill="white"/>
<path d="M15.5426 182.199L14.1601 179.608C13.9656 179.23 13.8576 178.853 13.8684 178.464C13.8684 178.075 13.9656 177.73 14.1709 177.406C14.3761 177.082 14.6353 176.834 14.9809 176.65C15.3158 176.467 15.6722 176.391 16.0502 176.413C16.4283 176.435 16.7739 176.543 17.098 176.758C17.422 176.974 17.6812 177.266 17.8864 177.633L18.9774 179.684L21.9369 178.119L22.2285 178.658L15.5534 182.199H15.5426ZM16.8171 177.255C16.5795 177.104 16.3311 177.018 16.0502 177.007C15.7802 176.996 15.5102 177.05 15.2618 177.19C15.0025 177.32 14.8081 177.514 14.6677 177.741C14.5273 177.978 14.4517 178.227 14.4517 178.507C14.4517 178.788 14.5165 179.069 14.6569 179.338L15.7478 181.39L18.4805 179.943L17.3896 177.892C17.2492 177.622 17.0548 177.406 16.8171 177.255ZM17.9945 178.626L17.6488 177.978L19.7118 173.941L20.0575 174.599L17.9945 178.626Z" fill="white"/>
<path d="M12.3563 176.078L10.4553 171.976L10.963 171.739L12.6047 175.279L15.2726 174.038L13.6741 170.594L14.1817 170.357L15.7803 173.8L18.4482 172.559L16.8064 169.018L17.314 168.781L19.215 172.883L12.3563 176.067V176.078Z" fill="white"/>
<path d="M9.87222 165.326L9.91544 165.099L11.2008 166.125L10.8875 166.514L9.6346 165.434L9.82903 165.358L9.60219 166.989L9.10535 166.913L9.40778 165.294L9.5806 165.434L8.04683 166.039L7.87402 165.585L9.42939 165.024L9.39697 165.24L8.10084 164.214L8.41408 163.826L9.667 164.905L9.47259 164.981L9.69942 163.351L10.1963 163.426L9.90462 165.045L9.72101 164.905L11.2548 164.301L11.4276 164.754L9.87222 165.315V165.326Z" fill="white"/>
<path d="M8.30601 160.933L8.36002 160.706L9.60214 161.785L9.26731 162.152L8.05759 161.03L8.252 160.965L7.96038 162.584L7.47432 162.487L7.83076 160.879L7.99278 161.03L6.42661 161.569L6.27539 161.105L7.85236 160.609L7.80917 160.825L6.55623 159.756L6.89106 159.389L8.10078 160.512L7.90637 160.576L8.19799 158.957L8.68405 159.054L8.32762 160.663L8.15479 160.512L9.72095 159.972L9.87217 160.436L8.29521 160.933H8.30601Z" fill="white"/>
<path d="M6.90194 156.475L6.95595 156.259L8.16567 157.381L7.82004 157.738L6.65352 156.572L6.84793 156.518L6.49151 158.126L6.00544 158.007L6.42669 156.41L6.58871 156.572L5.01174 157.057L4.87134 156.593L6.45911 156.151L6.41589 156.367L5.20617 155.244L5.5518 154.888L6.71832 156.054L6.52391 156.107L6.88035 154.499L7.3664 154.618L6.95595 156.215L6.78313 156.064L8.3601 155.579L8.48971 156.043L6.90194 156.485V156.475Z" fill="white"/>
<path d="M3.1538 150.322L3.03499 149.696L9.96933 146.047L10.0557 146.5L2.27891 145.626L2.1493 144.957L9.08363 141.297L9.17004 141.761L1.39323 140.887L1.27441 140.271L9.14843 141.211L9.26724 141.848L2.34372 145.529L2.24651 145.032L10.0341 145.95L10.1529 146.587L3.16461 150.311L3.1538 150.322Z" fill="white"/>
<path d="M1.1016 138.457L0.604736 133.967L1.1664 133.902L1.59845 137.788L4.51476 137.464L4.09351 133.686L4.65516 133.621L5.0764 137.399L7.99272 137.076L7.56067 133.189L8.12233 133.125L8.61919 137.615L1.1016 138.457Z" fill="white"/>
<path d="M0.475326 132.348L0.432129 131.732L7.42046 131.3L7.17202 127.403L7.73369 127.371L8.01451 131.883L0.464531 132.358L0.475326 132.348Z" fill="white"/>
<path d="M1.96581 126.777C1.37175 126.443 0.885693 125.979 0.540056 125.396C0.183619 124.813 0.0108011 124.154 0 123.42C0 122.891 0.0756079 122.405 0.270028 121.941C0.453647 121.477 0.712882 121.088 1.03692 120.743C1.36095 120.397 1.72818 120.138 2.12782 119.944L2.38706 120.505C1.8362 120.765 1.39336 121.153 1.05852 121.671C0.723688 122.189 0.561657 122.772 0.572459 123.399C0.572459 124.014 0.734484 124.564 1.03692 125.061C1.33935 125.558 1.73898 125.946 2.24664 126.227C2.75429 126.508 3.31596 126.637 3.94242 126.626C4.56889 126.615 5.11973 126.464 5.61658 126.162C6.11344 125.871 6.50229 125.46 6.79392 124.964C7.07475 124.456 7.21515 123.906 7.20435 123.291C7.20435 122.654 7.00993 122.082 6.66429 121.574C6.31866 121.067 5.85422 120.689 5.30336 120.451L5.54098 119.89C5.95143 120.074 6.31866 120.322 6.6535 120.646C6.98833 120.97 7.25836 121.358 7.46358 121.812C7.66881 122.265 7.76601 122.751 7.77681 123.28C7.78761 124.003 7.62561 124.672 7.30157 125.266C6.97754 125.86 6.51309 126.346 5.91903 126.702C5.33577 127.058 4.67689 127.242 3.95322 127.252C3.22954 127.263 2.57067 127.101 1.97661 126.767L1.96581 126.777Z" fill="white"/>
<path d="M1.9549 118.098C1.38244 117.72 0.950393 117.224 0.637161 116.609C0.334729 115.993 0.205131 115.324 0.248336 114.601C0.280739 114.072 0.410343 113.597 0.626366 113.143C0.853189 112.701 1.13402 112.323 1.49046 112.01C1.8469 111.697 2.22493 111.459 2.63538 111.297L2.8514 111.87C2.27894 112.085 1.81449 112.442 1.43645 112.938C1.05841 113.435 0.853198 113.996 0.820794 114.622C0.77759 115.238 0.8964 115.799 1.15563 116.317C1.41485 116.835 1.78209 117.256 2.26814 117.569C2.75419 117.882 3.30505 118.066 3.92071 118.109C4.53638 118.152 5.10884 118.044 5.62729 117.785C6.14575 117.526 6.56699 117.159 6.89102 116.684C7.21506 116.198 7.38788 115.659 7.43108 115.043C7.47428 114.406 7.33388 113.823 7.03144 113.294C6.71821 112.755 6.29696 112.344 5.7569 112.064L6.03773 111.524C6.42657 111.74 6.783 112.021 7.08544 112.366C7.38787 112.712 7.6363 113.122 7.79831 113.597C7.96033 114.061 8.02515 114.557 7.99274 115.086C7.94954 115.81 7.7335 116.457 7.35546 117.03C6.97743 117.602 6.48058 118.044 5.86492 118.347C5.24926 118.649 4.57958 118.789 3.8667 118.746C3.15383 118.703 2.50577 118.487 1.93331 118.109L1.9549 118.098Z" fill="white"/>
<path d="M2.57059 109.462C2.03053 109.041 1.63089 108.512 1.37166 107.875C1.11243 107.238 1.03682 106.558 1.13403 105.846C1.23125 105.122 1.49047 104.496 1.91172 103.946C2.33296 103.395 2.86222 102.996 3.48869 102.737C4.11516 102.478 4.79562 102.402 5.5085 102.499C6.22137 102.596 6.84783 102.855 7.38788 103.276C7.92794 103.697 8.32758 104.226 8.58681 104.863C8.84604 105.5 8.92164 106.18 8.82443 106.904C8.72722 107.616 8.468 108.242 8.04675 108.793C7.62551 109.343 7.09626 109.743 6.4698 110.002C5.83253 110.261 5.16286 110.336 4.44999 110.239C3.73712 110.142 3.11064 109.883 2.57059 109.462ZM6.26457 109.408C6.80463 109.192 7.24748 108.858 7.60392 108.393C7.96036 107.94 8.17638 107.411 8.26279 106.806C8.3492 106.202 8.27359 105.63 8.05756 105.09C7.84154 104.55 7.49591 104.108 7.03146 103.751C6.56701 103.395 6.03775 103.179 5.42208 103.093C4.80642 103.007 4.23395 103.082 3.6939 103.298C3.15384 103.514 2.71101 103.859 2.35457 104.313C1.99813 104.766 1.78211 105.295 1.6957 105.9C1.60929 106.504 1.6849 107.076 1.90092 107.616C2.11694 108.156 2.46258 108.598 2.92703 108.944C3.39147 109.3 3.92072 109.516 4.53638 109.602C5.15205 109.689 5.72451 109.624 6.26457 109.397V109.408Z" fill="white"/>
<path d="M2.08472 100.232L2.21433 99.6386L9.60229 101.236L9.47269 101.83L2.08472 100.232ZM2.11712 100.06L2.24673 99.4335L10.1208 97.8898L10.0019 98.4187L3.47806 93.7553L3.60766 93.1507L10.3152 97.933L10.1964 98.4727L2.11712 100.06ZM3.52127 93.561L3.65088 92.978L11.0388 94.5757L10.9092 95.1586L3.52127 93.561Z" fill="white"/>
<path d="M4.16919 91.1102L5.40052 86.7598L5.94057 86.9109L4.87127 90.6676L7.70116 91.4664L8.73806 87.8069L9.27812 87.958L8.24122 91.6175L11.0711 92.4164L12.1404 88.6597L12.6805 88.8108L11.4383 93.1612L4.16919 91.0994V91.1102Z" fill="white"/>
<path d="M8.25203 80.1535L7.33395 82.6256L6.80469 82.4313L8.86771 76.9258L9.39695 77.1201L8.47887 79.5922L15.0351 82.0426L14.8191 82.6148L8.26285 80.1643L8.25203 80.1535Z" fill="white"/>
<path d="M10.8984 76.6989C10.4988 76.1483 10.2612 75.5222 10.1855 74.8421C10.1099 74.162 10.2287 73.482 10.5204 72.8235C10.812 72.1542 11.244 71.6252 11.7949 71.215C12.3458 70.8048 12.9722 70.5673 13.6527 70.5025C14.3332 70.4378 15.0028 70.5457 15.6617 70.8372C16.3206 71.1286 16.8498 71.5496 17.2603 72.111C17.6707 72.6723 17.8975 73.2876 17.9732 73.9677C18.038 74.6478 17.9299 75.3279 17.6383 75.9864C17.3467 76.6449 16.9255 77.1739 16.3638 77.5841C15.8129 77.9943 15.1865 78.2318 14.506 78.2966C13.8255 78.3721 13.1559 78.2534 12.497 77.9619C11.8381 77.6704 11.3089 77.2494 10.9092 76.6881L10.8984 76.6989ZM14.452 77.6812C15.0352 77.6273 15.5537 77.4222 16.0289 77.0875C16.4934 76.7529 16.8606 76.2995 17.0983 75.7489C17.3467 75.1876 17.4439 74.6262 17.3791 74.0433C17.3143 73.4604 17.1091 72.9422 16.7742 72.478C16.4286 72.003 15.9749 71.6468 15.4133 71.3985C14.8516 71.1502 14.2792 71.0531 13.6959 71.1178C13.1127 71.1826 12.5942 71.3769 12.1189 71.7224C11.6437 72.057 11.2873 72.5104 11.0496 73.0609C10.8012 73.6223 10.704 74.1836 10.7688 74.7666C10.8336 75.3387 11.0388 75.8677 11.3845 76.3319C11.7301 76.796 12.1837 77.1631 12.7454 77.4114C13.3071 77.6596 13.8795 77.7568 14.4628 77.7028L14.452 77.6812Z" fill="white"/>
<path d="M16.0071 62.1687L16.3204 61.6182L24.5508 62.4602L24.2268 63.0215L16.0827 62.1795L16.3636 61.6829L21.2241 68.2571L20.9001 68.8185L15.9963 62.1687H16.0071ZM19.2583 66.2924L21.5265 62.3198L22.0234 62.6005L19.7551 66.5731L19.2583 66.2924Z" fill="white"/>
<path d="M20.6625 54.5583L21.0081 54.0617L30.0811 53.6947L29.9298 54.1804L23.9136 49.938L24.2593 49.4414L30.4375 53.8026L30.0919 54.2884L21.0081 54.6662L21.1593 54.1696L27.1756 58.4121L26.8191 58.9195L20.6409 54.5583H20.6625Z" fill="white"/>
<path d="M25.4258 47.9514L28.2449 44.4106L28.6877 44.7561L26.2467 47.8111L28.5473 49.6355L30.9128 46.6668L31.3556 47.0123L28.9901 49.9809L31.2908 51.8053L33.7319 48.7503L34.1747 49.0957L31.3556 52.6365L25.4474 47.9298L25.4258 47.9514Z" fill="white"/>
<path d="M29.012 43.3746L29.444 42.9104L36.5187 46.2785L36.2055 46.624L32.2523 39.877L32.7168 39.3805L39.7915 42.7377L39.4675 43.0832L35.5142 36.3363L35.9355 35.8721L39.8887 42.7377L39.4459 43.2127L32.3495 39.8662L32.6952 39.4884L36.6268 46.2677L36.1839 46.7427L29.012 43.3746Z" fill="white"/>
<path d="M39.8236 32.2554L43.2152 29.2544L43.5824 29.6754L40.6553 32.2662L42.5995 34.4684L45.4402 31.9532L45.8074 32.3742L42.9667 34.8894L44.9109 37.0916L47.838 34.5008L48.2053 34.9218L44.8137 37.9228L39.802 32.2662L39.8236 32.2554Z" fill="white"/>
<path d="M44.4897 28.1751L46.7904 26.3507C47.1252 26.0917 47.4817 25.9189 47.8597 25.8542C48.2377 25.7894 48.605 25.8218 48.9614 25.9513C49.3179 26.0809 49.6095 26.3076 49.8579 26.6098C50.0955 26.9121 50.2359 27.2467 50.2899 27.6246C50.344 28.0024 50.2899 28.3694 50.1387 28.7257C49.9875 29.0819 49.7499 29.3949 49.4151 29.654L47.6005 31.1006L49.6851 33.7238L49.199 34.1016L44.4897 28.1859V28.1751ZM49.5879 28.5205C49.6959 28.2615 49.7283 27.9916 49.6851 27.7217C49.6419 27.4518 49.5447 27.2035 49.361 26.9876C49.1774 26.761 48.9614 26.599 48.713 26.5019C48.4538 26.4047 48.1945 26.3831 47.9137 26.4263C47.6329 26.4695 47.3736 26.5882 47.136 26.7825L45.3214 28.2291L47.244 30.6472L49.0586 29.2006C49.2962 29.0063 49.4799 28.7796 49.5771 28.5205H49.5879ZM48.4538 29.9347L49.0262 29.4813L53.3791 30.7659L52.7958 31.2301L48.4538 29.9347Z" fill="white"/>
<path d="M52.2667 22.2704L52.7851 21.9033L59.8598 26.1782L59.3306 26.5452L52.3315 22.3027L52.7959 21.9789L54.3729 29.9996L53.8436 30.3667L52.2559 22.2596L52.2667 22.2704ZM53.4332 27.3764L57.1812 24.7532L57.5052 25.2174L53.7572 27.8406L53.4332 27.3764Z" fill="white"/>
<path d="M60.8535 18.7942C60.8535 18.1141 61.0479 17.4664 61.3936 16.8835C61.75 16.2897 62.2361 15.8256 62.8733 15.4693C63.5106 15.1131 64.1695 14.9404 64.8607 14.9512C65.552 14.9512 66.1893 15.1347 66.7725 15.4909C67.3558 15.8472 67.8311 16.3329 68.1875 16.959C68.5439 17.5852 68.7059 18.2437 68.7059 18.9237C68.7059 19.6038 68.5115 20.2515 68.1659 20.8345C67.8202 21.4174 67.3126 21.8924 66.6861 22.2486C66.0597 22.6049 65.4008 22.7776 64.7095 22.7668C64.0183 22.756 63.381 22.5833 62.7977 22.227C62.2145 21.8708 61.7392 21.385 61.3828 20.7589C61.0263 20.1328 60.8643 19.4743 60.8643 18.7942H60.8535ZM63.1218 21.7197C63.6186 22.0219 64.1587 22.1731 64.7419 22.1839C65.3252 22.1839 65.8761 22.0543 66.4053 21.7521C66.9346 21.4498 67.3558 21.0504 67.6474 20.5538C67.9391 20.0572 68.0903 19.5175 68.1011 18.9345C68.1119 18.3516 67.9607 17.7903 67.6582 17.2505C67.3558 16.7108 66.9562 16.2897 66.4485 15.9983C65.9517 15.7068 65.4116 15.5449 64.8283 15.5341C64.2451 15.5341 63.6942 15.6636 63.165 15.9659C62.6249 16.2682 62.2145 16.6676 61.9228 17.1641C61.6312 17.6607 61.48 18.2005 61.4692 18.7834C61.4692 19.3663 61.6096 19.9277 61.912 20.4674C62.2145 21.0072 62.6141 21.4282 63.111 21.7305L63.1218 21.7197Z" fill="white"/>
<path d="M67.885 12.9217L71.7734 11.0542L72.0218 11.5616L68.6951 13.1592L69.9804 15.8256L73.21 14.2711L73.4584 14.7893L70.2289 16.3438L71.7302 19.4636L71.1794 19.7334L67.9066 12.9217H67.885Z" fill="white"/>
<path d="M79.7771 14.9076C80.2308 15.0264 80.7384 14.9832 81.3109 14.7673C81.6673 14.627 81.959 14.4542 82.1966 14.2275C82.4342 14.0008 82.5854 13.7634 82.661 13.4935C82.7366 13.2236 82.7258 12.9537 82.6286 12.6946C82.5098 12.3816 82.3154 12.1549 82.067 12.0253C81.8185 11.8958 81.5377 11.8202 81.2461 11.8202C80.9436 11.8202 80.5548 11.831 80.058 11.885C79.5179 11.939 79.0751 11.9606 78.7186 11.9498C78.373 11.9498 78.0489 11.8526 77.7357 11.6799C77.4225 11.5072 77.1957 11.2157 77.0336 10.7947C76.904 10.4493 76.8824 10.1038 76.9688 9.74758C77.0552 9.39135 77.2389 9.06749 77.5305 8.77603C77.8221 8.48456 78.1786 8.24707 78.6214 8.08514C79.0643 7.91242 79.4855 7.84765 79.8959 7.86924C80.3064 7.89083 80.6736 8.02037 80.9977 8.22548C81.3217 8.43059 81.5809 8.71126 81.7861 9.0459L81.2569 9.39135C81.0193 8.97034 80.6844 8.68967 80.2524 8.53854C79.8203 8.38741 79.3451 8.41979 78.8266 8.6141C78.5026 8.74364 78.2326 8.90557 78.0165 9.11068C77.8005 9.31578 77.6601 9.55327 77.5845 9.80156C77.5089 10.0498 77.5305 10.3089 77.6277 10.5572C77.7465 10.8595 77.9193 11.0646 78.157 11.1833C78.3946 11.3021 78.6538 11.356 78.9346 11.3668C79.2155 11.3668 79.5935 11.3453 80.0688 11.2913C80.6196 11.2265 81.0841 11.2049 81.4405 11.2157C81.7969 11.2265 82.1426 11.3237 82.4666 11.5072C82.7906 11.6907 83.0391 12.0145 83.2119 12.4679C83.3523 12.835 83.3739 13.202 83.2767 13.569C83.1795 13.9361 82.9635 14.2707 82.6502 14.573C82.337 14.8752 81.959 15.1127 81.5053 15.2855C80.8032 15.5553 80.1552 15.6093 79.5611 15.4474C78.967 15.2855 78.5134 14.9292 78.211 14.3787L78.7402 14.0332C78.9886 14.4866 79.3451 14.7673 79.7879 14.8968L79.7771 14.9076Z" fill="white"/>
<path d="M83.633 8.24738C83.7842 7.57808 84.0974 6.99515 84.5618 6.48778C85.0263 5.98041 85.6096 5.62418 86.3008 5.40827C86.9921 5.19237 87.6834 5.15999 88.353 5.31112C89.0227 5.46225 89.6168 5.76451 90.1136 6.2287C90.6213 6.69289 90.9777 7.27582 91.1937 7.95591C91.4098 8.6468 91.4422 9.31609 91.2909 9.98538C91.1397 10.6547 90.8265 11.2376 90.362 11.745C89.8976 12.2523 89.3143 12.6086 88.6123 12.8245C87.921 13.0404 87.2405 13.0728 86.5709 12.9216C85.9012 12.7705 85.3071 12.4682 84.8103 12.0041C84.3026 11.5399 83.9462 10.9569 83.7302 10.2768C83.5141 9.58596 83.4817 8.91667 83.633 8.24738ZM85.2315 11.5723C85.6528 11.9717 86.1496 12.2308 86.7113 12.3603C87.2729 12.4898 87.8454 12.4682 88.4287 12.2847C89.0119 12.1012 89.498 11.799 89.8976 11.3779C90.2864 10.9461 90.5457 10.4496 90.6753 9.88823C90.8049 9.31609 90.7725 8.74395 90.5889 8.15022C90.4053 7.55649 90.1028 7.07071 89.6708 6.6713C89.2387 6.27188 88.7419 6.0128 88.1802 5.88326C87.6186 5.75372 87.0461 5.77531 86.4628 5.95882C85.8796 6.14234 85.3935 6.4446 84.9939 6.86561C84.605 7.29741 84.3458 7.79398 84.2162 8.35533C84.0866 8.91667 84.119 9.4996 84.3026 10.0933C84.4862 10.6871 84.7887 11.1728 85.2099 11.5723H85.2315Z" fill="white"/>
<path d="M91.7124 3.96151L95.9032 2.94678L96.0329 3.49733L92.4469 4.37173L93.149 7.24322L96.6377 6.3904L96.7781 6.94095L93.2894 7.79376L94.1103 11.1618L93.5162 11.3022L91.7232 3.96151H91.7124Z" fill="white"/>
<path d="M99.3272 2.82846L96.735 3.32504L96.627 2.77449L102.406 1.6626L102.514 2.21315L99.9213 2.70972L101.239 9.57538L100.634 9.69413L99.3164 2.82846H99.3272Z" fill="white"/>
<path d="M103.583 1.40322L104.22 1.32766L107.363 8.49558L106.899 8.54956L108.324 0.852676L109.005 0.777109L112.159 7.94503L111.684 7.99901L113.109 0.302128L113.736 0.226562L112.234 7.99901L111.586 8.07458L108.411 0.906651L108.919 0.852676L107.45 8.54956L106.801 8.62512L103.583 1.39243V1.40322Z" fill="white"/>
<path d="M117.473 0.129501L118.11 0.10791L121.75 7.52412L121.102 7.54571L117.505 0.205066L118.078 0.183475L115.075 7.794L114.427 7.81559L117.473 0.129501ZM115.702 5.06285L120.281 4.87933L120.303 5.45147L115.723 5.63498L115.702 5.06285Z" fill="white"/>
<path d="M122.841 0L125.779 0.0647698C126.2 0.0647698 126.578 0.172721 126.913 0.367032C127.248 0.561344 127.507 0.820424 127.691 1.14428C127.875 1.46813 127.972 1.83516 127.961 2.22378C127.961 2.60161 127.853 2.95785 127.648 3.27091C127.443 3.59476 127.173 3.84304 126.838 4.01576C126.492 4.19928 126.114 4.28564 125.682 4.27485L123.36 4.23167L123.284 7.57814H122.668L122.83 0.0107953L122.841 0ZM126.535 3.51919C126.784 3.38965 126.978 3.20613 127.129 2.96864C127.27 2.73115 127.345 2.47207 127.356 2.1914C127.356 1.89993 127.302 1.64085 127.162 1.40336C127.021 1.16587 126.838 0.982352 126.6 0.831221C126.362 0.68009 126.082 0.615318 125.768 0.604523L123.446 0.550549L123.381 3.63794L125.704 3.69191C126.017 3.69191 126.287 3.63794 126.535 3.5084V3.51919ZM124.753 3.88622H125.488L128.015 7.6645H127.27L124.753 3.88622Z" fill="white"/>
<path d="M129.722 0.205078L134.236 0.539725L134.193 1.10107L130.294 0.809601L130.078 3.73507L133.869 4.01574L133.826 4.57708L130.035 4.29641L129.819 7.22187L133.718 7.51334L133.675 8.07468L129.16 7.74003L129.722 0.205078Z" fill="white"/>
<path d="M140.317 3.26006L140.49 3.41119L138.967 4.0373L138.784 3.57311L140.328 3.00098L140.296 3.20608L138.978 2.21294L139.291 1.82432L140.566 2.87144L140.361 2.947L140.577 1.30615L141.063 1.38172L140.804 3.01177L140.631 2.87144L142.154 2.23453L142.337 2.69871L140.793 3.27085L140.825 3.06575L142.143 4.05889L141.83 4.44752L140.555 3.41119L140.76 3.32483L140.544 4.96568L140.058 4.89011L140.317 3.26006Z" fill="white"/>
<path d="M144.929 4.02661L145.102 4.17774L143.558 4.73908L143.396 4.2641L144.962 3.75673L144.919 3.96184L143.644 2.92551L143.968 2.54768L145.2 3.64878L144.984 3.71355L145.264 2.0835L145.74 2.16986L145.416 3.78912L145.243 3.64878L146.787 3.07664L146.949 3.55163L145.383 4.05899L145.426 3.85389L146.701 4.89021L146.377 5.26804L145.146 4.17774L145.362 4.10217L145.081 5.73223L144.605 5.64587L144.929 4.02661Z" fill="white"/>
<path d="M149.498 4.9659L149.66 5.12783L148.094 5.6352L147.943 5.16021L149.531 4.71762L149.488 4.92272L148.256 3.83242L148.591 3.46539L149.779 4.60967L149.563 4.67444L149.909 3.05518L150.384 3.16313L149.995 4.77159L149.833 4.62046L151.399 4.1023L151.551 4.57728L149.963 5.01988L150.006 4.81477L151.237 5.90507L150.903 6.2721L149.715 5.13862L149.931 5.06306L149.585 6.68232L149.11 6.57437L149.498 4.9659Z" fill="white"/>
<path d="M121.5 151.526L121.5 93.6092M121.5 93.6092L98.3333 116.776M121.5 93.6092L144.667 116.776" stroke="white" stroke-width="2" stroke-linecap="round" stroke-linejoin="round"/>
</svg>
