<svg width="82" height="82" viewBox="0 0 82 82" fill="none" xmlns="http://www.w3.org/2000/svg">
<path d="M6.05391 8.07178C5.09297 8.45615 4.13203 9.38506 3.65156 10.346L3.26719 11.0827L3.23516 42.6335L3.20312 74.2163H41H78.7969L78.7648 42.6655L78.7328 11.1147L78.3484 10.378C77.868 9.38506 76.875 8.48818 75.882 8.10381C75.0812 7.7835 75.0492 7.7835 40.9359 7.81553C7.14297 7.7835 6.79062 7.7835 6.05391 8.07178ZM74.8891 10.9226C75.6898 11.2749 75.7539 11.5632 75.818 14.2858L75.882 16.7522H41H6.11797L6.18203 14.2858C6.24609 11.5632 6.34219 11.2429 7.07891 10.9226C7.78359 10.6343 74.1203 10.6343 74.8891 10.9226ZM75.818 45.5163L75.7859 71.1733H41H6.21406L6.18203 45.5163L6.15 19.8593H41H75.85L75.818 45.5163Z" fill="#E31C3F"/>
<path d="M46.3813 26.0734C46.2212 26.1374 45.9649 26.3616 45.8368 26.5538C45.7087 26.746 42.5376 34.4015 38.7899 43.5624C34.1774 54.8374 31.9673 60.3788 31.9673 60.7312C31.9673 61.4038 32.6399 62.1085 33.2485 62.1085C34.0173 62.1085 34.3376 61.9163 34.6899 61.3077C35.2345 60.3788 48.4954 27.8031 48.4954 27.4187C48.5274 26.3616 47.4384 25.657 46.3813 26.0734Z" fill="#E31C3F"/>
<path d="M26.6179 35.2344C25.4968 35.7469 16.1437 41.1601 15.8234 41.4804C15.3429 41.9289 15.2468 42.5375 15.5991 43.1781C15.8234 43.6586 16.432 44.0429 21.3968 46.8937C26.682 49.9047 26.9702 50.0328 27.5788 49.9687C28.4437 49.8726 28.828 49.4883 28.828 48.6234C28.828 48.0789 28.764 47.8547 28.4757 47.5984C28.2835 47.4062 26.2655 46.189 24.0554 44.9078C21.8132 43.6265 19.9874 42.5695 19.9554 42.5695C19.9234 42.5375 21.7491 41.4804 24.0234 40.1992C26.2655 38.8859 28.2835 37.7328 28.4757 37.5406C28.9882 37.0922 29.0202 36.0031 28.4757 35.4906C27.9632 34.9461 27.3226 34.882 26.6179 35.2344Z" fill="#E31C3F"/>
<path d="M54.0687 35.074C53.2359 35.4264 52.9156 36.5475 53.4281 37.3162C53.5562 37.5084 55.446 38.6936 57.8804 40.1029C60.2187 41.4162 62.1085 42.5373 62.0765 42.5693C62.0445 42.5693 60.1866 43.6584 57.9765 44.9076C55.7343 46.1889 53.7804 47.374 53.5882 47.5342C53.1398 47.9506 53.0437 48.5592 53.2999 49.1998C53.5241 49.7764 53.9726 50.0326 54.7093 50.0326C55.1257 50.0326 65.7601 44.0748 66.3046 43.5303C66.4968 43.3381 66.5929 43.0178 66.5929 42.5693C66.5929 41.9928 66.5609 41.8006 66.1765 41.4803C65.5359 40.9037 55.3179 35.1061 54.8054 35.042C54.5812 34.9779 54.2288 35.01 54.0687 35.074Z" fill="#E31C3F"/>
</svg>
