<svg width="531" height="676" viewBox="0 0 531 876" fill="none" xmlns="http://www.w3.org/2000/svg">
<path d="M393.002 1031.9C430.357 992.243 452.276 938.96 452.276 881.34C452.276 761.143 390.532 723.039 390.532 723.039C455.363 719.322 531 641.876 531 575.581H390.223L341.137 575.891L424.8 548.32V185.252C424.8 141.262 417.391 105.327 401.955 77.7562C380.653 36.8645 325.392 0 246.359 0C188.32 0 162.387 17.348 162.387 17.348V32.5275C161.461 149.317 89.5291 230.79 0 256.812C0 256.812 15.436 305.139 71.3145 298.323L184.615 260.839L210.239 253.714L218.574 251.856C242.346 251.856 261.487 271.062 261.487 294.916C261.487 306.688 256.547 317.53 248.829 325.275C205.917 378.868 83.6634 443.923 83.6634 575.891C83.6634 777.252 310.265 788.714 310.265 940.199C310.265 1013.93 257.782 1061.33 203.756 1061.33C165.783 1061.33 154.36 1051.1 152.508 1049.24L152.199 1048.93C179.367 1051.1 204.682 1037.47 216.413 1015.17C229.688 989.145 218.883 962.813 217.957 960.955C215.487 955.688 210.548 946.085 200.669 938.03C185.233 925.639 164.24 921.612 146.951 925.639C117.314 932.454 100.334 961.574 96.0122 983.879C87.368 1027.25 121.019 1068.14 150.656 1085.8C150.656 1085.8 186.776 1107.48 250.681 1100.67C299.768 1095.4 340.21 1073.1 340.21 1073.1M339.284 1073.41C370.774 1055.75 393.002 1031.9 393.002 1031.9L339.284 1073.41ZM184.306 202.91C173.501 202.91 164.857 194.236 164.857 183.393C164.857 172.551 173.501 163.877 184.306 163.877C195.112 163.877 203.756 172.551 203.756 183.393C203.756 194.236 195.112 202.91 184.306 202.91Z" fill="#FBE7DB"/>
</svg>
