<svg width="79" height="80" viewBox="0 0 79 80" fill="none" xmlns="http://www.w3.org/2000/svg">
<path d="M20.0549 36.5693C20.174 38.6696 20.8309 40.704 21.9625 42.4773L25.4882 47.9941C26.6843 49.8657 28.3324 51.4061 30.2805 52.4731C32.2286 53.5402 34.4141 54.0996 36.6353 54.0997H42.658C44.8792 54.0996 47.0646 53.5403 49.0128 52.4732C50.9609 51.4062 52.609 49.8658 53.805 47.9941L57.3315 42.4773C58.4626 40.7038 59.1192 38.6695 59.2383 36.5693" stroke="#E31C3F" stroke-width="2" stroke-linecap="round" stroke-linejoin="round"/>
<path d="M20.1919 15.2294C20.7296 11.286 22.6784 7.6712 25.6774 5.05481C28.6764 2.43843 32.5221 0.99785 36.5019 1H42.799C46.7779 0.999185 50.6222 2.44038 53.6199 5.05666C56.6176 7.67293 58.5656 11.287 59.103 15.2294" stroke="#E31C3F" stroke-width="2" stroke-linecap="round" stroke-linejoin="round"/>
<path d="M16.522 17.19V34.4583C16.522 34.9493 16.706 35.4225 17.0377 35.7846C17.3695 36.1466 17.8249 36.3712 18.3141 36.414L29.2859 37.3742C29.945 37.4317 30.6087 37.3399 31.2274 37.1056C31.8462 36.8713 32.4042 36.5005 32.8599 36.0208L37.3336 31.3121C37.6318 30.9983 37.9906 30.7485 38.3884 30.5778C38.7861 30.4071 39.2144 30.319 39.6472 30.319C40.0801 30.319 40.5084 30.4071 40.9061 30.5778C41.3038 30.7485 41.6627 30.9983 41.9608 31.3121L46.4346 36.0208C46.8903 36.5006 47.4482 36.8714 48.067 37.1057C48.6858 37.3401 49.3494 37.4318 50.0086 37.3742L60.9804 36.414C61.4696 36.3712 61.925 36.1466 62.2567 35.7846C62.5885 35.4225 62.7725 34.9493 62.7725 34.4583V17.19C62.7723 16.6694 62.5654 16.1701 62.1973 15.802C61.8292 15.4339 61.3299 15.227 60.8093 15.2268H18.4852C17.9645 15.2268 17.4652 15.4337 17.097 15.8018C16.7288 16.17 16.522 16.6693 16.522 17.19Z" stroke="#E31C3F" stroke-width="2" stroke-linecap="round" stroke-linejoin="round"/>
<path d="M55.6058 19.3079H23.6892C23.1331 19.3079 22.5998 19.5288 22.2066 19.9219C21.8134 20.3151 21.5925 20.8484 21.5925 21.4045C21.5925 21.9606 21.8134 22.4939 22.2066 22.8871C22.5998 23.2803 23.1331 23.5011 23.6892 23.5011H55.6058C56.1618 23.5011 56.6951 23.2803 57.0883 22.8871C57.4815 22.4939 57.7024 21.9606 57.7024 21.4045C57.7024 20.8484 57.4815 20.3151 57.0883 19.9219C56.6951 19.5288 56.1618 19.3079 55.6058 19.3079Z" stroke="#E31C3F" stroke-width="2" stroke-linecap="round" stroke-linejoin="round"/>
<path d="M13.7966 21.4048C13.7033 21.4048 13.6138 21.4419 13.5479 21.5078C13.4819 21.5738 13.4448 21.6633 13.4448 21.7566V31.2724C13.4448 31.3657 13.4819 31.4552 13.5479 31.5212C13.6138 31.5872 13.7033 31.6242 13.7966 31.6242H16.5224V21.4048H13.7966Z" stroke="#E31C3F" stroke-width="2" stroke-linecap="round" stroke-linejoin="round"/>
<path d="M65.4985 31.6269C65.5918 31.6269 65.6813 31.5899 65.7472 31.5239C65.8132 31.4579 65.8503 31.3685 65.8503 31.2752V21.7566C65.8503 21.6633 65.8132 21.5738 65.7472 21.5078C65.6813 21.4419 65.5918 21.4048 65.4985 21.4048H62.7727V31.6269H65.4985Z" stroke="#E31C3F" stroke-width="2" stroke-linecap="round" stroke-linejoin="round"/>
<path d="M28.8839 51.6604V58.3086C28.8838 58.894 28.7045 59.4654 28.37 59.9458C28.0356 60.4263 27.562 60.7929 27.0131 60.9963L6.67747 68.5341C5.09768 69.1195 3.73499 70.1746 2.77265 71.5574C1.81031 72.9403 1.29445 74.5847 1.29443 76.2694V79H78.0002V76.2694C78.0002 74.5847 77.4843 72.9403 76.522 71.5574C75.5596 70.1746 74.1969 69.1195 72.6171 68.5341L52.2815 60.9963C51.7326 60.7929 51.259 60.4263 50.9246 59.9458C50.5901 59.4654 50.4108 58.894 50.4107 58.3086V51.6604" stroke="#E31C3F" stroke-width="2" stroke-linecap="round" stroke-linejoin="round"/>
</svg>
